<svg width="2133.33" height="2133.33" viewBox="0 0 1600 1600" xmlns="http://www.w3.org/2000/svg" xmlns:xlink="http://www.w3.org/1999/xlink" overflow="hidden"><g transform="matrix(0.1 0 0 -0.1 0 1600)"><path d="M11252 15984C11154 15967 11119 15955 11028 15908 10936 15861 10836 15772 10773 15681 10747 15645 10722 15610 10716 15605 10710 15599 10698 15581 10689 15565 10557 15312 8192 11020 8177 11007 8166 10997 8061 10811 7945 10592L7732 10195 7589 10183C7384 10167 7217 10124 7068 10049 7025 10027 6363 9597 5598 9092 4832 8587 3589 7767 2835 7270 2082 6773 1326 6275 1157 6163 976 6044 827 5939 796 5908 731 5842 681 5753 640 5632L609 5538 612 5087 616 4635 643 4535C675 4415 754 4250 816 4174 873 4105 3782 1003 3853 936 4186 624 4580 461 5065 434 5259 424 5482 454 5670 516 5775 550 5970 648 6062 712 6105 741 6242 839 6367 929 7840 1992 11158 4357 11510 4594 11744 4752 11864 4879 11960 5070 12045 5239 12059 5320 12061 5668 12062 5833 12066 5950 12072 5950 12077 5950 12094 5940 12110 5928 12126 5916 12141 5908 12143 5911 12145 5913 12289 6169 12462 6480 12636 6791 13086 7583 13462 8240 13838 8897 14451 9968 14824 10620 15197 11272 15512 11821 15524 11840 15555 11888 15598 12030 15616 12137 15642 12300 15630 12457 15579 12615 15503 12851 15382 12988 14915 13367 14739 13509 14228 13922 13780 14285 13332 14648 12729 15135 12441 15368 12153 15601 11900 15802 11880 15814 11859 15825 11811 15854 11773 15876 11685 15930 11595 15966 11504 15985 11417 16003 11351 16003 11252 15984ZM11486 15353C11504 15343 11837 15079 12227 14765 12616 14452 13374 13843 13910 13412 14446 12981 14906 12606 14932 12579 14997 12511 15022 12441 15028 12315 15031 12234 15028 12204 15013 12160 15002 12130 14587 11392 14089 10520 13591 9648 13078 8750 12949 8523 12820 8296 12712 8111 12709 8110 12706 8110 12680 8166 12651 8235 12597 8363 12544 8448 12506 8466 12494 8472 11815 9083 10996 9824 10177 10566 9498 11178 9486 11184 9474 11190 9449 11207 9430 11222 9376 11263 9306 11290 9180 11316 9117 11330 9064 11343 9062 11345 9059 11347 9123 11467 9202 11612 10777 14473 11224 15287 11228 15302 11230 15312 11237 15320 11243 15320 11248 15320 11258 15327 11264 15335 11296 15380 11418 15389 11486 15353ZM8995 10789C9017 10778 9047 10763 9061 10755 9095 10736 11972 8132 12081 8022 12224 7876 12275 7763 12275 7585 12275 7411 12256 7363 12012 6928 11898 6725 11803 6560 11799 6560 11795 6560 11769 6591 11740 6630L11689 6699 11695 6777 11702 6855 10088 8373C9003 9395 8450 9908 8400 9942 8359 9970 8325 9997 8325 10004 8325 10010 8408 10170 8510 10360 8703 10719 8742 10775 8810 10797 8868 10815 8950 10812 8995 10789ZM7795 8200C8159 8165 8460 8032 8685 7806 9146 7342 9142 6639 8675 6164 8445 5931 8149 5769 7820 5699 7729 5679 7686 5676 7500 5676 7315 5676 7271 5679 7183 5698 6899 5760 6674 5872 6494 6043 6304 6223 6179 6443 6124 6697 6102 6799 6102 7017 6124 7117 6174 7348 6290 7553 6458 7712 6556 7804 6791 7969 6918 8033 7186 8170 7492 8228 7795 8200ZM5059 5118C5835 4305 6470 3637 6470 3633 6469 3623 5413 2865 5400 2865 5387 2865 2619 5802 2622 5812 2628 5826 3625 6599 3636 6597 3642 6596 4282 5930 5059 5118ZM11520 5638C11520 5436 11509 5363 11471 5286 11414 5172 11354 5111 11183 4994 10775 4717 8435 3049 6219 1458 5831 1179 5733 1116 5597 1058 5320 938 5004 932 4708 1040 4568 1091 4421 1179 4307 1280 4280 1304 3616 2034 2829 2904 2043 3773 1382 4497 1360 4512 1258 4582 1220 4685 1213 4915L1208 5075 1243 5040C1262 5021 1720 4537 2261 3965 4247 1865 4286 1825 4377 1756 4533 1639 4727 1558 4929 1524 5087 1498 5296 1508 5455 1549 5705 1613 5505 1476 8655 3749 10217 4876 11501 5799 11508 5799 11517 5800 11520 5761 11520 5638Z"/><path d="M7455 7620C7217 7583 6988 7464 6867 7314 6769 7194 6720 7057 6720 6905 6720 6747 6762 6647 6879 6527 7134 6264 7483 6183 7840 6305 8124 6402 8313 6601 8366 6860 8404 7048 8357 7218 8229 7355 8062 7533 7876 7617 7630 7625 7567 7627 7488 7625 7455 7620Z"/><path d="M4812 4625C4746 4607 4729 4598 4659 4544 4585 4488 4565 4446 4565 4350 4565 4257 4589 4188 4628 4170 4743 4117 4851 4100 4931 4124 4998 4143 5090 4215 5115 4266 5139 4316 5139 4419 5116 4487 5079 4597 4940 4660 4812 4625Z"/><path d="M5405 3956C5305 3924 5210 3851 5185 3786 5162 3727 5168 3611 5195 3555 5222 3500 5288 3478 5420 3477 5635 3475 5739 3550 5740 3706 5740 3826 5695 3915 5615 3951 5568 3973 5465 3975 5405 3956Z"/></g></svg>