<svg fill="#000000" xmlns="http://www.w3.org/2000/svg" viewBox="0 0 26 26" width="100px" height="100px"><path d="M 13 0.09375 C 12.175781 0.09375 11.296875 0.3125 10.4375 0.71875 C 9.484375 1.003906 7.085938 1.9375 5.5 4.3125 C 2.601563 8.511719 5.414063 10.292969 2.8125 13.09375 C -0.289063 16.59375 0.800781 21.988281 3 22.6875 C 5.253906 23.382813 7.394531 22.664063 8.78125 22 C 8.84375 22.050781 8.90625 22.109375 8.96875 22.15625 C 9.71875 22.734375 10.496094 23.152344 11.1875 23.4375 C 11.234375 23.457031 11.265625 23.480469 11.3125 23.5 C 11.964844 24.636719 13 26 13 26 C 13 26 14.003906 24.632813 14.65625 23.5 C 14.722656 23.472656 14.777344 23.464844 14.84375 23.4375 C 15.542969 23.152344 16.304688 22.734375 17.0625 22.15625 C 17.125 22.109375 17.1875 22.050781 17.25 22 C 18.636719 22.660156 20.757813 23.375 23 22.6875 C 25.199219 21.988281 26.289063 16.59375 23.1875 13.09375 C 20.585938 10.292969 23.398438 8.511719 20.5 4.3125 C 18.863281 1.859375 16.382813 0.96875 15.5 0.71875 C 14.664063 0.324219 13.8125 0.09375 13 0.09375 Z M 13 1.90625 C 14.089844 1.90625 15.941406 2.785156 17.3125 4.40625 C 18.683594 6.027344 19.632813 8.304688 19.3125 11.09375 C 19.28125 11.390625 19.398438 11.683594 19.625 11.875 C 19.53125 13.046875 19.355469 14.46875 19.125 15.71875 C 18.730469 15.796875 18.4375 16.128906 18.40625 16.53125 C 18.324219 17.746094 17.84375 18.75 17.1875 19.5625 C 16.855469 18.414063 16.035156 17.109375 14 17 L 14 18.40625 C 14 18.40625 15.957031 18.578125 16.90625 19.90625 C 16.613281 20.222656 16.300781 20.496094 15.96875 20.75 C 15.394531 21.1875 14.808594 21.492188 14.28125 21.71875 C 13.5625 21.167969 13 20 13 20 C 13 20 12.4375 21.167969 11.71875 21.71875 C 11.203125 21.496094 10.621094 21.179688 10.0625 20.75 C 9.734375 20.496094 9.417969 20.222656 9.125 19.90625 C 10.078125 18.59375 12 18.40625 12 18.40625 L 12 17 C 9.964844 17.109375 9.144531 18.414063 8.8125 19.5625 C 8.164063 18.753906 7.703125 17.746094 7.59375 16.53125 C 7.574219 16.25 7.421875 15.996094 7.1875 15.84375 C 6.9375 14.503906 6.746094 12.925781 6.59375 11.59375 C 6.671875 11.441406 6.703125 11.265625 6.6875 11.09375 C 6.320313 8.253906 7.277344 5.980469 8.65625 4.375 C 10.035156 2.769531 11.898438 1.90625 13 1.90625 Z M 8.09375 7 C 7.894531 7.300781 8.105469 10.3125 9.40625 10.8125 C 10.804688 11.3125 11.898438 10.898438 12 11 C 12 11 9.09375 9.398438 8.09375 7 Z M 17.90625 7 C 16.90625 9.398438 14 11 14 11 C 14.101563 10.898438 15.195313 11.3125 16.59375 10.8125 C 17.894531 10.3125 18.105469 7.300781 17.90625 7 Z M 9.5 12 C 8.671875 12 8 12.671875 8 13.5 C 8 14.328125 8.671875 15 9.5 15 C 10.328125 15 11 14.328125 11 13.5 C 11 12.671875 10.328125 12 9.5 12 Z M 16.5 12 C 15.671875 12 15 12.671875 15 13.5 C 15 14.328125 15.671875 15 16.5 15 C 17.328125 15 18 14.328125 18 13.5 C 18 12.671875 17.328125 12 16.5 12 Z"/></svg>