<svg width="459" height="490" xmlns="http://www.w3.org/2000/svg" xmlns:xlink="http://www.w3.org/1999/xlink" overflow="hidden"><defs><clipPath id="clip0"><path d="M412 46 871 46 871 536 412 536Z" fill-rule="evenodd" clip-rule="evenodd"/></clipPath><clipPath id="clip1"><path d="M413 47 870 47 870 535 413 535Z" fill-rule="evenodd" clip-rule="evenodd"/></clipPath><clipPath id="clip2"><path d="M413 47 870 47 870 535 413 535Z" fill-rule="evenodd" clip-rule="evenodd"/></clipPath></defs><g clip-path="url(#clip0)" transform="translate(-412 -46)"><g clip-path="url(#clip1)"><g clip-path="url(#clip2)"><path d="M198.6 352.14 206.903 360.185C232.98 356.407 253.295 358.377 269.452 367.196 286.601 376.545 298.451 393.164 306.862 418.29 308.194 422.272 306.047 426.579 302.065 427.911 298.097 429.243 293.79 427.096 292.458 423.114 285.31 401.766 275.703 387.906 262.182 380.527 248.498 373.053 230.167 371.789 205.762 375.717 203.411 376.165 200.87 375.499 199.021 373.705L185.759 360.864C185.365 360.592 184.984 360.293 184.631 359.94L172.985 348.281C162.536 337.831 148.756 332.613 134.964 332.613 123.59 332.613 112.23 336.173 102.731 343.28L224.093 464.642 224.079 464.655 224.297 464.886C225.234 465.905 226.362 467.074 227.68 468.379 249.531 490.229 278.23 501.766 307.243 502.5 336.268 503.234 365.647 493.178 388.816 471.844 389.849 470.892 391.031 469.751 392.363 468.406 425.56 435.208 425.927 397.01 426.443 343.864L426.498 337.695 426.471 336.988C426.457 336.798 426.443 336.554 426.416 336.268 426.308 335.249 426.403 334.176 426.742 333.143L474.983 184.033C476.939 177.986 476.246 171.681 473.542 166.408 470.852 161.149 466.177 156.91 460.157 154.953L460.13 154.939C454.083 152.983 447.778 153.676 442.519 156.38 437.247 159.07 432.993 163.758 431.05 169.792L391.017 293.518C390.229 296.888 387.199 299.388 383.598 299.388L383.313 299.388 383.313 299.361C382.552 299.361 381.763 299.252 381.003 299.008 377.007 297.717 374.806 293.436 376.083 289.441L425.085 137.695C427.041 131.648 426.335 125.343 423.644 120.071 420.954 114.812 416.265 110.572 410.232 108.615L410.218 108.615C404.171 106.658 397.866 107.365 392.594 110.056 387.335 112.76 383.095 117.448 381.138 123.481L326.24 293.518C325.452 296.874 322.435 299.388 318.82 299.388L315.926 299.388 315.926 299.375C312.094 299.375 308.778 296.48 308.37 292.567L286.927 93.3279C286.248 87.0227 283.055 81.5735 278.448 77.8638 273.936 74.2356 268.093 72.2652 261.951 72.8088 261.666 72.8631 261.367 72.8903 261.068 72.9038 254.953 73.6784 249.653 76.831 246.025 81.3425 242.315 85.9491 240.345 91.9689 241.024 98.2877L261.707 290.42C261.774 290.854 261.815 291.303 261.815 291.765 261.815 295.977 258.404 299.388 254.206 299.388L254.056 299.388 254.056 299.375C250.224 299.375 246.922 296.48 246.501 292.567L227.571 118.331C226.892 112.04 223.685 106.59 219.065 102.881 214.567 99.2661 208.724 97.3093 202.582 97.8529 202.283 97.9072 201.997 97.9344 201.698 97.948 195.583 98.7226 190.284 101.889 186.656 106.4 183.041 110.912 181.084 116.741 181.628 122.897 181.682 123.21 181.723 123.522 181.736 123.848L204.538 333.754C204.742 335.14 204.566 336.608 203.941 337.98 202.582 340.97 201.359 344 200.272 347.085 199.674 348.784 199.117 350.469 198.6 352.14ZM200.53 82.7829C209.947 81.7638 218.97 84.2913 226.253 89.292 227.381 82.81 230.167 76.8174 234.189 71.8167 240.345 64.1663 249.409 58.8667 259.886 57.7388L259.899 57.7388C270.363 56.6109 280.337 59.8586 287.974 66.0144 295.611 72.1701 300.924 81.2338 302.052 91.7243L320.397 262.182 366.68 118.834C369.914 108.805 376.953 101.019 385.691 96.5484 394.238 92.1728 404.402 90.977 414.214 93.9529 414.676 94.0481 415.124 94.1975 415.545 94.3741 425.248 97.7169 432.789 104.634 437.151 113.167 441.418 121.497 442.668 131.376 439.964 140.957 447.506 138.212 455.945 137.79 464.125 140.277 464.587 140.386 465.036 140.522 465.457 140.712 475.159 144.041 482.701 150.971 487.063 159.505 491.425 168.053 492.621 178.231 489.645 188.028 489.55 188.463 489.414 188.884 489.251 189.278L441.663 336.377C441.677 336.771 441.677 337.26 441.677 337.817L441.622 343.987C441.079 400.801 440.685 441.636 403.139 479.182 401.984 480.337 400.652 481.614 399.116 483.027 372.931 507.147 339.72 518.508 306.889 517.679 274.032 516.85 241.568 503.832 216.904 479.154 215.844 478.094 214.649 476.844 213.317 475.417L213.317 475.417 86.1802 348.281C83.2042 345.305 83.2042 340.481 86.1802 337.505 99.6058 324.093 117.285 317.38 134.964 317.38 152.643 317.38 170.335 324.093 183.761 337.505L186.547 340.304C187.389 338.048 188.273 335.82 189.224 333.632L166.558 124.949C165.43 114.499 168.678 104.525 174.82 96.8745 180.962 89.2376 190.026 83.9244 200.503 82.7829L200.53 82.7829Z" transform="matrix(1 0 -0 1.00024 352.283 0.113852)"/><text font-family="Arial,Arial_MSFontService,sans-serif" font-weight="700" font-size="5" transform="matrix(0.000115048 0 0 0.000115076 352.283 575)">Created by abeldb<tspan x="0" y="0">from the Noun Project</tspan></text></g></g></g></svg>