<svg width="291" height="149" xmlns="http://www.w3.org/2000/svg" xmlns:xlink="http://www.w3.org/1999/xlink" overflow="hidden"><defs><clipPath id="clip0"><path d="M82 149 373 149 373 298 82 298Z" fill-rule="evenodd" clip-rule="evenodd"/></clipPath><clipPath id="clip1"><path d="M83 149 372 149 372 297 83 297Z" fill-rule="evenodd" clip-rule="evenodd"/></clipPath><clipPath id="clip2"><path d="M83 149 372 149 372 297 83 297Z" fill-rule="evenodd" clip-rule="evenodd"/></clipPath><clipPath id="clip3"><path d="M83 64 372 64 372 426 83 426Z" fill-rule="evenodd" clip-rule="evenodd"/></clipPath></defs><g clip-path="url(#clip0)" transform="translate(-82 -149)"><g clip-path="url(#clip1)"><g clip-path="url(#clip2)"><g clip-path="url(#clip3)"><path d="M252.118 126.979C252 126.872 251.844 126.843 251.708 126.774 251.35 126.393 250.864 126.141 250.304 126.141L249.351 126.141 224.246 120.864 218.986 115.61C218.622 115.246 218.125 115.038 217.608 115.038L194.679 115.038C194.141 115.038 193.633 115.257 193.263 115.647L188.373 120.812 160.848 126.182C160.487 126.251 160.163 126.442 159.892 126.693 159.877 126.708 159.854 126.708 159.837 126.725 159.834 126.731 159.831 126.731 159.831 126.731L154.447 132.231C154.311 132.375 154.27 132.566 154.184 132.733 146.387 134.654 142.67 139.695 142.473 144.842 142.471 144.88 142.436 144.897 142.436 144.934 142.436 144.958 142.459 144.963 142.459 144.989 142.456 145.088 142.424 145.186 142.424 145.287 142.424 146.315 142.173 147.055 141.65 147.543 140.824 148.32 139.377 148.349 138.756 148.381 117.62 148.381 99.8264 148.73 85.6551 149.4L85.2478 147.367 127.742 147.358C127.75 147.358 127.753 147.367 127.762 147.367 127.771 147.367 127.773 147.358 127.779 147.358L127.924 147.358C132.346 146.985 140.703 143.681 140.703 133.831 140.703 123.943 132.303 120.89 127.863 120.653 127.837 120.653 127.808 120.659 127.779 120.659 127.773 120.659 127.768 120.653 127.762 120.653L60.6111 120.653C60.3078 120.653 60.0102 120.72 59.7387 120.858L48.5888 126.433C45.394 126.624 40.7088 128.14 37.9964 132.207 37.9819 132.222 37.9762 132.245 37.9617 132.259 36.7138 134.157 35.8531 136.54 35.8531 139.677 35.8531 143.508 37.0258 146.578 39.3338 148.785 43.1785 152.465 48.7448 152.26 48.9961 152.274 49.1607 152.269 49.3283 152.237 49.4871 152.191L63.8405 147.774 64.5222 150.911C53.9471 152.055 49.7876 153.34 48.2017 154.49 40.1426 154.946 36.7427 161.284 35.7751 165.802L32.1846 165.802C31.396 165.802 30.6825 166.275 30.3821 167.006 30.0817 167.737 30.2434 168.575 30.8038 169.132L36.3037 174.638C36.6676 175.002 37.1645 175.21 37.6815 175.21L88.457 175.21C103.816 175.21 114.616 190.799 114.726 190.961 115.087 191.496 115.693 191.813 116.338 191.813L161.454 191.813C162.205 191.813 162.89 191.38 163.213 190.71L173.933 168.346 185.594 150.648C191.773 151.882 198.63 152.63 206.034 152.63 206.184 152.63 206.32 152.615 206.473 152.615 206.502 152.615 206.531 152.63 206.565 152.63 206.692 152.63 206.796 152.598 206.929 152.598 230.595 152.416 249.325 145.348 252.277 135.547L256.688 135.547C257.5 135.547 258.228 135.044 258.511 134.281 258.797 133.527 258.583 132.667 257.973 132.135L252.118 126.979ZM129.712 139.325 129.712 128.334 129.712 124.894C132.438 125.578 136.806 127.62 136.806 133.828 136.806 140.012 132.366 142.228 129.712 143.022L129.712 139.325ZM213.374 118.937 216.802 118.937 218.524 120.659 213.377 120.659 213.377 118.937ZM207.978 118.937 209.474 118.937 209.474 120.665 207.978 120.665 207.978 118.937ZM202.582 118.937 204.078 118.937 204.078 120.673 202.582 120.673 202.582 118.937ZM195.516 118.937 198.682 118.937 198.682 120.682 193.867 120.682 195.516 118.937ZM189.364 124.55 222.822 124.504 230.552 126.141 181.261 126.141 189.364 124.55ZM95.8835 152.884C107.611 152.497 121.369 152.297 136.806 152.274L136.806 159.334 123.819 159.334 123.819 156.411C123.819 155.336 122.947 154.461 121.869 154.461L110.794 154.461C109.717 154.461 108.845 155.336 108.845 156.411L108.845 159.334 95.8806 159.334 95.8806 152.884ZM119.922 158.361 119.922 159.334 112.747 159.334 112.747 158.361 119.922 158.361ZM125.812 143.464 95.066 143.464C95.4213 142.803 95.6871 142.078 95.8431 141.278L125.812 141.278 125.812 143.464ZM125.812 125.099 125.812 126.387 120.728 126.387 125.812 125.099ZM61.0732 124.55 112.094 124.55 104.829 126.387 57.4019 126.387 61.0732 124.55ZM41.3471 142.534 40.2004 142.534C39.9635 141.65 39.7497 140.752 39.7497 139.677 39.7497 137.987 40.1224 136.676 40.625 135.541L41.3471 135.541 41.3471 142.534ZM51.0961 157.341C52.1735 156.853 55.5763 155.772 65.3541 154.753L67.7603 165.804 51.0961 165.804 51.0961 157.341ZM47.1965 158.621 47.1965 165.802 39.8364 165.802C40.5383 163.312 42.4419 159.502 47.1965 158.621ZM38.4874 171.307 36.8843 169.701 37.4475 169.701 68.6038 169.701 68.9562 171.307 38.4874 171.307ZM72.9424 171.307 67.197 144.871C67.0815 144.337 66.7493 143.871 66.2756 143.6 65.8076 143.326 65.253 143.274 64.7157 143.418L48.6119 148.378C47.806 148.363 44.9232 148.118 42.6903 146.437L43.294 146.437C44.3715 146.437 45.2438 145.561 45.2438 144.487L45.2438 140.992 69.8979 140.992 80.0743 171.313 72.9424 171.313ZM84.1848 171.307 74.0083 140.986 82.7838 140.986C83.8613 140.986 84.7336 140.111 84.7336 139.036 84.7336 137.961 83.8613 137.086 82.7838 137.086L45.2467 137.086 45.2467 133.591C45.2467 132.724 44.6112 132.115 43.8255 131.861 46.1422 130.468 48.6668 130.301 49.1463 130.286L125.815 130.286 125.815 137.378 94.0695 137.378C92.9921 137.378 92.1197 138.253 92.1197 139.328 92.1197 140.648 91.7875 141.653 91.1318 142.297 90.1121 143.32 88.5292 143.334 88.4512 143.334L82.8387 143.334C82.2552 143.334 81.6977 143.591 81.3309 144.051 81.1575 144.256 81.2153 144.547 81.1431 144.799 81.0651 145.012 80.8889 145.18 80.8889 145.414 80.8889 145.475 80.9467 145.506 80.9524 145.567 80.9553 145.605 80.9178 145.628 80.9265 145.665L86.071 171.31 84.1848 171.31ZM104.977 170.149 168.734 170.149 168.046 171.59 110.794 171.59C109.717 171.59 108.845 172.466 108.845 173.54 108.845 174.615 109.717 175.49 110.794 175.49L166.174 175.49 165.484 176.928 116.208 176.928C115.13 176.928 114.258 177.804 114.258 178.878 114.258 179.953 115.13 180.828 116.208 180.828L163.615 180.828 162.933 182.252 122.646 182.252C121.569 182.252 120.696 183.127 120.696 184.202 120.696 185.276 121.569 186.152 122.646 186.152L161.061 186.152 160.221 187.911 117.331 187.911C114.781 184.499 104.595 172.367 90.0833 171.475L86.4321 153.271C88.2114 153.187 90.0919 153.109 91.9839 153.043L91.9839 161.284C91.9839 162.358 92.8563 163.234 93.9337 163.234L110.794 163.234 121.869 163.234 138.756 163.234C139.833 163.234 140.706 162.358 140.706 161.284L140.706 152.425C156.004 153.173 165.337 162.038 168.878 166.249L104.977 166.249C103.899 166.249 103.027 167.125 103.027 168.199 103.027 169.274 103.899 170.149 104.977 170.149ZM178.537 154.27 172.217 154.27C171.14 154.27 170.267 155.146 170.267 156.22 170.267 157.295 171.14 158.17 172.217 158.17L175.969 158.17 172.11 164.019C168.708 159.793 159.987 151.133 145.339 148.97 145.662 148.421 145.821 147.682 145.995 146.881L155.842 146.881C156.919 146.881 157.792 146.006 157.792 144.932 157.792 143.857 156.919 142.982 155.842 142.982L146.749 142.982C147.967 139.334 152.179 136.197 159.892 135.853 161.711 141.228 168.372 145.732 177.965 148.724L161.454 148.724C160.377 148.724 159.505 149.6 159.505 150.674 159.505 151.749 160.377 152.624 161.454 152.624L179.623 152.624 178.537 154.27ZM164.028 135.541 173.887 135.541C175.175 137.649 178.641 142.456 184.69 146.448 173.638 143.958 166.232 139.77 164.028 135.541ZM178.595 135.541 188.061 135.541C189.066 137.878 191.53 143.011 195.389 147.072 186.553 144.391 181.134 138.946 178.595 135.541ZM206.308 148.672C199.48 148.467 194.491 139.983 192.351 135.544L220.24 135.544C217.793 140.645 212.695 148.444 206.308 148.672ZM224.526 135.541 233.943 135.541C231.384 138.915 225.985 144.322 217.247 147.026 221.077 142.976 223.527 137.872 224.526 135.541ZM228.091 146.304C234.01 142.335 237.424 137.629 238.698 135.541L248.019 135.541C245.859 139.692 238.758 143.796 228.091 146.304ZM160.475 131.641 162.044 130.041 248.958 130.041 249.929 130.246 251.512 131.638 160.475 131.638Z" transform="matrix(1.00049 0 -0 1 83 64.7582)"/><text font-family="Arial,Arial_MSFontService,sans-serif" font-weight="700" font-size="5" transform="matrix(2.89 0 0 2.88858 83 397)">Created by Jonas Nullens<tspan x="0" y="4.84667">from the Noun Project</tspan></text></g></g></g></g></svg>