<?xml version="1.0" standalone="no"?>
<!DOCTYPE svg PUBLIC "-//W3C//DTD SVG 20010904//EN"
 "http://www.w3.org/TR/2001/REC-SVG-20010904/DTD/svg10.dtd">
<svg version="1.0" xmlns="http://www.w3.org/2000/svg"
 width="512.000000pt" height="512.000000pt" viewBox="0 0 512.000000 512.000000"
 preserveAspectRatio="xMidYMid meet">

<g transform="translate(0.000000,512.000000) scale(0.100000,-0.100000)"
fill="#000000" stroke="none">
<path d="M1883 4306 c-89 -29 -163 -95 -210 -186 l-28 -55 -3 -471 -3 -472
-152 -4 c-139 -3 -157 -6 -209 -30 -72 -34 -142 -103 -176 -176 l-27 -57 0
-365 c0 -407 7 -471 70 -666 74 -225 186 -406 365 -584 219 -219 451 -346 753
-412 148 -32 446 -32 594 0 303 66 533 192 753 412 219 218 345 451 413 759
20 93 21 127 24 984 4 794 2 895 -12 944 -45 155 -178 254 -339 254 -84 0
-141 -18 -207 -66 l-48 -35 -63 64 c-77 77 -143 106 -246 106 -99 0 -149 -19
-248 -94 -8 -7 -27 7 -64 47 -31 34 -74 67 -108 84 -50 25 -68 28 -152 28
-113 0 -163 -19 -238 -89 l-48 -45 -40 40 c-61 63 -131 92 -228 96 -50 2 -97
-2 -123 -11z m202 -143 c43 -22 74 -52 98 -98 21 -39 22 -51 25 -504 3 -442 2
-463 -15 -455 -10 5 -109 10 -221 12 l-203 3 3 447 c3 446 3 447 27 495 52
106 182 152 286 100z m533 12 c62 -19 105 -54 135 -109 22 -41 22 -44 22 -551
0 -503 0 -511 -22 -550 -41 -78 -109 -119 -193 -119 -84 0 -152 41 -193 119
-22 39 -22 47 -22 550 0 503 0 511 22 550 30 56 64 85 125 106 65 22 63 22
126 4z m610 -84 c47 -24 76 -55 99 -106 16 -36 18 -82 21 -474 2 -289 -1 -451
-8 -486 -43 -206 -304 -245 -403 -60 -21 39 -22 52 -25 485 -4 521 -3 530 67
600 71 71 161 86 249 41z m533 -53 c22 -6 57 -26 78 -45 72 -61 72 -62 69
-565 l-3 -446 -30 -43 c-102 -146 -333 -110 -384 60 -14 48 -16 840 -1 890 34
118 154 184 271 149z m-1591 -1080 c27 -29 21 -78 -21 -165 -35 -72 -96 -131
-183 -175 -64 -32 -191 -68 -243 -68 -74 0 -99 -84 -36 -126 25 -16 53 -22
135 -27 319 -20 628 -176 841 -424 68 -80 83 -93 110 -93 17 0 39 7 49 17 33
29 22 66 -40 145 -157 196 -369 341 -620 425 -59 19 -108 36 -110 38 -2 1 16
14 40 28 66 38 145 128 180 204 17 38 32 69 34 71 1 2 23 -13 49 -32 128 -98
321 -84 448 33 l44 40 39 -40 c21 -22 64 -52 94 -67 47 -23 67 -27 145 -27 81
0 97 3 155 32 36 17 80 48 99 67 l34 35 39 -39 c22 -22 65 -52 96 -67 50 -24
69 -28 147 -28 81 0 97 3 153 31 l62 31 0 -306 c0 -340 -9 -424 -61 -589 -133
-416 -459 -745 -876 -881 -252 -82 -563 -84 -817 -4 -289 91 -548 284 -717
536 -97 146 -151 265 -196 441 -26 98 -27 112 -30 460 -3 198 -2 374 1 391 8
43 71 114 120 136 38 17 74 19 428 19 l387 0 21 -22z"/>
</g>
</svg>
