<svg width="136" height="226" xmlns="http://www.w3.org/2000/svg" xmlns:xlink="http://www.w3.org/1999/xlink" overflow="hidden"><defs><clipPath id="clip0"><path d="M649 176 785 176 785 402 649 402Z" fill-rule="evenodd" clip-rule="evenodd"/></clipPath><clipPath id="clip1"><path d="M650 177 784 177 784 401 650 401Z" fill-rule="evenodd" clip-rule="evenodd"/></clipPath><clipPath id="clip2"><path d="M650 177 784 177 784 401 650 401Z" fill-rule="evenodd" clip-rule="evenodd"/></clipPath><clipPath id="clip3"><path d="M650 177 784 177 784 453 650 453Z" fill-rule="evenodd" clip-rule="evenodd"/></clipPath></defs><g clip-path="url(#clip0)" transform="translate(-649 -176)"><g clip-path="url(#clip1)"><g clip-path="url(#clip2)"><g clip-path="url(#clip3)"><path d="M70.2809 0.399679C70.2809 0.399679 112.275 44.3881 132.005 164.256 96.4196 52.5076 70.2809 0.399679 70.2809 0.399679Z" fill-rule="evenodd" transform="matrix(1 0 -0 1.00251 650 177)"/><path d="M86.0977 138.24C86.0977 138.24 34.0543 136.419 0.119175 219.293 46.6253 154.896 86.0977 138.24 86.0977 138.24Z" fill-rule="evenodd" transform="matrix(1 0 -0 1.00251 650 177)"/><path d="M50.3658 32.339C50.3658 32.339 9.31719 98.859 0.95643 198.85 26.97 105.612 50.3658 32.339 50.3658 32.339Z" fill-rule="evenodd" transform="matrix(1 0 -0 1.00251 650 177)"/><text font-family="Arial,Arial_MSFontService,sans-serif" font-weight="700" font-size="5" transform="matrix(2.19672 0 0 2.20223 650 430)">Created by Chris<tspan x="0" y="4.99493">from the Noun Project</tspan></text></g></g></g></g></svg>